<svg xmlns="http://www.w3.org/2000/svg" viewBox="0 0 800 200" width="800" height="200">
  <!-- Cat silhouette -->
  <g transform="translate(20, 20)">
    <!-- Cat body -->
    <path d="M50 120 C30 120 15 105 15 85 C15 65 30 50 50 50 L90 50 C110 50 125 65 125 85 C125 105 110 120 90 120 Z" fill="#000"/>

    <!-- Cat head -->
    <circle cx="50" cy="85" r="35" fill="#000"/>

    <!-- Cat ears -->
    <path d="M25 60 L35 40 L45 60 Z" fill="#000"/>
    <path d="M55 60 L65 40 L75 60 Z" fill="#000"/>

    <!-- Cat tail (curved) -->
    <path d="M125 85 Q145 65 165 45 Q175 35 180 50 Q175 65 165 75 Q145 95 125 95" fill="#000" stroke="#000" stroke-width="2"/>

    <!-- Cat legs -->
    <rect x="35" y="115" width="8" height="20" fill="#000"/>
    <rect x="50" y="115" width="8" height="20" fill="#000"/>
    <rect x="75" y="115" width="8" height="20" fill="#000"/>
    <rect x="90" y="115" width="8" height="20" fill="#000"/>
  </g>

  <!-- Text "Mahou no Gakuen" -->
  <text x="220" y="110" font-family="Arial, sans-serif" font-size="48" font-weight="normal" fill="#000">Mahou no Gakuen</text>
</svg>